<mxfile host="app.diagrams.net" modified="2023-09-13T14:22:26.249Z" agent="Mozilla/5.0 (X11; Linux x86_64) AppleWebKit/537.36 (KHTML, like Gecko) Chrome/116.0.0.0 Safari/537.36" etag="pjQ0_TWeTC1j5cGGsC2Y" version="21.7.5" type="device">
  <diagram name="Page-1" id="lCp6fPsICLk8MU9H2ciJ">
    <mxGraphModel dx="1602" dy="945" grid="1" gridSize="10" guides="1" tooltips="1" connect="1" arrows="1" fold="1" page="1" pageScale="1" pageWidth="850" pageHeight="1100" math="0" shadow="0">
      <root>
        <mxCell id="0" />
        <mxCell id="1" parent="0" />
        <mxCell id="ehq8woWxYnmpTR0Z6O5Y-5" value="" style="ellipse;whiteSpace=wrap;html=1;aspect=fixed;fillColor=none;strokeColor=#009900;dashed=1;dashPattern=12 12;" parent="1" vertex="1">
          <mxGeometry x="280" y="480" width="240" height="240" as="geometry" />
        </mxCell>
        <mxCell id="ehq8woWxYnmpTR0Z6O5Y-10" value="" style="ellipse;whiteSpace=wrap;html=1;aspect=fixed;fillColor=none;strokeColor=#7EA6E0;dashed=1;" parent="1" vertex="1">
          <mxGeometry x="200" y="400" width="400" height="400" as="geometry" />
        </mxCell>
        <mxCell id="ehq8woWxYnmpTR0Z6O5Y-9" value="" style="ellipse;whiteSpace=wrap;html=1;aspect=fixed;fillColor=none;strokeWidth=4;" parent="1" vertex="1">
          <mxGeometry x="240" y="400" width="400" height="400" as="geometry" />
        </mxCell>
        <mxCell id="ehq8woWxYnmpTR0Z6O5Y-1" value="" style="ellipse;whiteSpace=wrap;html=1;aspect=fixed;fillColor=none;" parent="1" vertex="1">
          <mxGeometry x="280" y="120" width="240" height="240" as="geometry" />
        </mxCell>
        <mxCell id="ehq8woWxYnmpTR0Z6O5Y-2" value="" style="whiteSpace=wrap;html=1;aspect=fixed;fillColor=none;" parent="1" vertex="1">
          <mxGeometry x="360" y="200" width="80" height="80" as="geometry" />
        </mxCell>
        <mxCell id="ehq8woWxYnmpTR0Z6O5Y-3" value="" style="ellipse;whiteSpace=wrap;html=1;aspect=fixed;fillColor=none;strokeWidth=3;" parent="1" vertex="1">
          <mxGeometry x="320" y="480" width="240" height="240" as="geometry" />
        </mxCell>
        <mxCell id="ehq8woWxYnmpTR0Z6O5Y-4" value="" style="whiteSpace=wrap;html=1;aspect=fixed;fillColor=none;strokeWidth=3;" parent="1" vertex="1">
          <mxGeometry x="400" y="560" width="80" height="80" as="geometry" />
        </mxCell>
        <mxCell id="ehq8woWxYnmpTR0Z6O5Y-6" value="" style="whiteSpace=wrap;html=1;aspect=fixed;fillColor=none;strokeColor=#009900;dashed=1;" parent="1" vertex="1">
          <mxGeometry x="360" y="560" width="80" height="80" as="geometry" />
        </mxCell>
        <mxCell id="ehq8woWxYnmpTR0Z6O5Y-7" value="Broken lines: Previous position, 1 line thick&lt;br&gt;Continuous lines: Current position, 3 lines thick&lt;br&gt;&lt;br&gt;LOD 0: Square in the middle&amp;nbsp;&lt;br&gt;LOD 1: Smallest circle&lt;br&gt;LOD 2: Biggest circle" style="text;html=1;strokeColor=none;fillColor=none;align=left;verticalAlign=top;whiteSpace=wrap;rounded=0;" parent="1" vertex="1">
          <mxGeometry x="40" y="800" width="270" height="90" as="geometry" />
        </mxCell>
        <mxCell id="ehq8woWxYnmpTR0Z6O5Y-14" value="" style="group" parent="1" vertex="1" connectable="0">
          <mxGeometry x="1320" y="400" width="370" height="160" as="geometry" />
        </mxCell>
        <mxCell id="ehq8woWxYnmpTR0Z6O5Y-12" value="&lt;ol&gt;&lt;li&gt;LOD 0 Moving on the right&lt;/li&gt;&lt;li&gt;Stepping to LOD 0&lt;br&gt;&lt;/li&gt;&lt;li&gt;Assume everything is loaded async&lt;/li&gt;&lt;li&gt;Once the new chunk is available&lt;/li&gt;&lt;li&gt;Delete the old chunk&lt;/li&gt;&lt;/ol&gt;" style="text;html=1;strokeColor=none;fillColor=none;align=left;verticalAlign=top;whiteSpace=wrap;rounded=0;" parent="ehq8woWxYnmpTR0Z6O5Y-14" vertex="1">
          <mxGeometry y="30" width="370" height="130" as="geometry" />
        </mxCell>
        <mxCell id="ehq8woWxYnmpTR0Z6O5Y-13" value="Draft" style="text;html=1;strokeColor=none;fillColor=none;align=center;verticalAlign=middle;whiteSpace=wrap;rounded=0;" parent="ehq8woWxYnmpTR0Z6O5Y-14" vertex="1">
          <mxGeometry x="130" width="60" height="30" as="geometry" />
        </mxCell>
        <mxCell id="yp4XHpIwTp00gd9XK1u--13" style="edgeStyle=orthogonalEdgeStyle;rounded=0;orthogonalLoop=1;jettySize=auto;html=1;entryX=0.5;entryY=0;entryDx=0;entryDy=0;" edge="1" parent="1" source="ehq8woWxYnmpTR0Z6O5Y-16" target="yp4XHpIwTp00gd9XK1u--1">
          <mxGeometry relative="1" as="geometry" />
        </mxCell>
        <mxCell id="ehq8woWxYnmpTR0Z6O5Y-16" value="CL0" style="rounded=1;whiteSpace=wrap;html=1;fillColor=none;" parent="1" vertex="1">
          <mxGeometry x="880" y="760" width="200" height="80" as="geometry" />
        </mxCell>
        <mxCell id="ehq8woWxYnmpTR0Z6O5Y-32" value="" style="group" parent="1" vertex="1" connectable="0">
          <mxGeometry x="40" y="940" width="270" height="150" as="geometry" />
        </mxCell>
        <mxCell id="ehq8woWxYnmpTR0Z6O5Y-25" value="Items" style="swimlane;fontStyle=0;childLayout=stackLayout;horizontal=1;startSize=30;horizontalStack=0;resizeParent=1;resizeParentMax=0;resizeLast=0;collapsible=1;marginBottom=0;whiteSpace=wrap;html=1;" parent="ehq8woWxYnmpTR0Z6O5Y-32" vertex="1">
          <mxGeometry width="258.75" height="214.02061855670107" as="geometry" />
        </mxCell>
        <mxCell id="ehq8woWxYnmpTR0Z6O5Y-26" value="CL0: Square in the middle 3 lines thick" style="text;strokeColor=none;fillColor=none;align=left;verticalAlign=middle;spacingLeft=4;spacingRight=4;overflow=hidden;points=[[0,0.5],[1,0.5]];portConstraint=eastwest;rotatable=0;whiteSpace=wrap;html=1;" parent="ehq8woWxYnmpTR0Z6O5Y-25" vertex="1">
          <mxGeometry y="30" width="258.75" height="26.288659793814436" as="geometry" />
        </mxCell>
        <mxCell id="ehq8woWxYnmpTR0Z6O5Y-27" value="CL1: Smallest circle 3 lines thick" style="text;strokeColor=none;fillColor=none;align=left;verticalAlign=middle;spacingLeft=4;spacingRight=4;overflow=hidden;points=[[0,0.5],[1,0.5]];portConstraint=eastwest;rotatable=0;whiteSpace=wrap;html=1;" parent="ehq8woWxYnmpTR0Z6O5Y-25" vertex="1">
          <mxGeometry y="56.28865979381443" width="258.75" height="26.288659793814436" as="geometry" />
        </mxCell>
        <mxCell id="ehq8woWxYnmpTR0Z6O5Y-28" value="CL2: Biggest circle 3 lines thick" style="text;strokeColor=none;fillColor=none;align=left;verticalAlign=middle;spacingLeft=4;spacingRight=4;overflow=hidden;points=[[0,0.5],[1,0.5]];portConstraint=eastwest;rotatable=0;whiteSpace=wrap;html=1;" parent="ehq8woWxYnmpTR0Z6O5Y-25" vertex="1">
          <mxGeometry y="82.57731958762886" width="258.75" height="26.288659793814436" as="geometry" />
        </mxCell>
        <mxCell id="ehq8woWxYnmpTR0Z6O5Y-33" value="PL0: Square in the middle 1 lines thick" style="text;strokeColor=none;fillColor=none;align=left;verticalAlign=middle;spacingLeft=4;spacingRight=4;overflow=hidden;points=[[0,0.5],[1,0.5]];portConstraint=eastwest;rotatable=0;whiteSpace=wrap;html=1;" parent="ehq8woWxYnmpTR0Z6O5Y-25" vertex="1">
          <mxGeometry y="108.8659793814433" width="258.75" height="26.288659793814436" as="geometry" />
        </mxCell>
        <mxCell id="ehq8woWxYnmpTR0Z6O5Y-34" value="PL1: Smallest circle 1 lines thick" style="text;strokeColor=none;fillColor=none;align=left;verticalAlign=middle;spacingLeft=4;spacingRight=4;overflow=hidden;points=[[0,0.5],[1,0.5]];portConstraint=eastwest;rotatable=0;whiteSpace=wrap;html=1;" parent="ehq8woWxYnmpTR0Z6O5Y-25" vertex="1">
          <mxGeometry y="135.15463917525773" width="258.75" height="26.288659793814436" as="geometry" />
        </mxCell>
        <mxCell id="ehq8woWxYnmpTR0Z6O5Y-35" value="PL2: Biggest circle 1 lines thick" style="text;strokeColor=none;fillColor=none;align=left;verticalAlign=middle;spacingLeft=4;spacingRight=4;overflow=hidden;points=[[0,0.5],[1,0.5]];portConstraint=eastwest;rotatable=0;whiteSpace=wrap;html=1;" parent="ehq8woWxYnmpTR0Z6O5Y-25" vertex="1">
          <mxGeometry y="161.44329896907217" width="258.75" height="26.288659793814436" as="geometry" />
        </mxCell>
        <mxCell id="yp4XHpIwTp00gd9XK1u--4" value="C: Chunk with LOD index from 0 to 2" style="text;strokeColor=none;fillColor=none;align=left;verticalAlign=middle;spacingLeft=4;spacingRight=4;overflow=hidden;points=[[0,0.5],[1,0.5]];portConstraint=eastwest;rotatable=0;whiteSpace=wrap;html=1;" vertex="1" parent="ehq8woWxYnmpTR0Z6O5Y-25">
          <mxGeometry y="187.73195876288662" width="258.75" height="26.288659793814436" as="geometry" />
        </mxCell>
        <mxCell id="ehq8woWxYnmpTR0Z6O5Y-36" value="CL: &lt;br&gt;- Current LOD&lt;br&gt;- Continuous lines&lt;br&gt;PL: &lt;br&gt;- Previous LOD&lt;br&gt;- Broken lines" style="rounded=1;whiteSpace=wrap;html=1;fillColor=none;align=left;verticalAlign=top;" parent="1" vertex="1">
          <mxGeometry x="40" y="1250" width="270" height="120" as="geometry" />
        </mxCell>
        <mxCell id="yp4XHpIwTp00gd9XK1u--14" style="edgeStyle=orthogonalEdgeStyle;rounded=0;orthogonalLoop=1;jettySize=auto;html=1;entryX=0.5;entryY=0;entryDx=0;entryDy=0;" edge="1" parent="1" source="yp4XHpIwTp00gd9XK1u--1" target="yp4XHpIwTp00gd9XK1u--3">
          <mxGeometry relative="1" as="geometry" />
        </mxCell>
        <mxCell id="yp4XHpIwTp00gd9XK1u--1" value="Iterate each chunk" style="rounded=1;whiteSpace=wrap;html=1;fillColor=none;" vertex="1" parent="1">
          <mxGeometry x="880" y="880" width="200" height="80" as="geometry" />
        </mxCell>
        <mxCell id="yp4XHpIwTp00gd9XK1u--16" style="edgeStyle=orthogonalEdgeStyle;rounded=0;orthogonalLoop=1;jettySize=auto;html=1;entryX=0.5;entryY=0;entryDx=0;entryDy=0;" edge="1" parent="1" source="yp4XHpIwTp00gd9XK1u--3" target="yp4XHpIwTp00gd9XK1u--15">
          <mxGeometry relative="1" as="geometry" />
        </mxCell>
        <mxCell id="yp4XHpIwTp00gd9XK1u--3" value="If C.index != 0 &amp;amp;&amp;amp;&lt;br&gt;has_duplicate_chunk_index0()" style="rounded=1;whiteSpace=wrap;html=1;fillColor=none;" vertex="1" parent="1">
          <mxGeometry x="880" y="1000" width="200" height="80" as="geometry" />
        </mxCell>
        <mxCell id="yp4XHpIwTp00gd9XK1u--9" value="" style="ellipse;whiteSpace=wrap;html=1;aspect=fixed;fillColor=none;strokeColor=#009900;dashed=1;dashPattern=12 12;" vertex="1" parent="1">
          <mxGeometry x="880" y="480" width="240" height="240" as="geometry" />
        </mxCell>
        <mxCell id="yp4XHpIwTp00gd9XK1u--10" value="" style="ellipse;whiteSpace=wrap;html=1;aspect=fixed;fillColor=none;strokeWidth=3;" vertex="1" parent="1">
          <mxGeometry x="920" y="480" width="240" height="240" as="geometry" />
        </mxCell>
        <mxCell id="yp4XHpIwTp00gd9XK1u--11" value="" style="whiteSpace=wrap;html=1;aspect=fixed;fillColor=none;strokeWidth=3;" vertex="1" parent="1">
          <mxGeometry x="1000" y="560" width="80" height="80" as="geometry" />
        </mxCell>
        <mxCell id="yp4XHpIwTp00gd9XK1u--12" value="" style="whiteSpace=wrap;html=1;aspect=fixed;fillColor=none;strokeColor=#009900;dashed=1;" vertex="1" parent="1">
          <mxGeometry x="960" y="560" width="80" height="80" as="geometry" />
        </mxCell>
        <mxCell id="yp4XHpIwTp00gd9XK1u--15" value="Remove chunk" style="rounded=1;whiteSpace=wrap;html=1;fillColor=none;" vertex="1" parent="1">
          <mxGeometry x="880" y="1120" width="200" height="80" as="geometry" />
        </mxCell>
      </root>
    </mxGraphModel>
  </diagram>
</mxfile>
